<?xml version="1.0" standalone="no"?>
<!DOCTYPE svg PUBLIC "-//W3C//DTD SVG 20010904//EN"
 "http://www.w3.org/TR/2001/REC-SVG-20010904/DTD/svg10.dtd">
<svg version="1.0" xmlns="http://www.w3.org/2000/svg"
 width="149.000000pt" height="149.000000pt" viewBox="0 0 149.000000 149.000000"
 preserveAspectRatio="xMidYMid meet">
<metadata>
Created by potrace 1.11, written by Peter Selinger 2001-2013
</metadata>
<g transform="translate(0.000000,149.000000) scale(0.100000,-0.100000)"
fill="#000000" stroke="none">
<path d="M1035 1100 c-29 -12 -62 -50 -80 -93 -17 -42 -39 -51 -29 -12 4 18 2
25 -9 25 -8 0 -17 -9 -20 -21 -3 -12 -10 -18 -16 -15 -6 4 -18 -3 -28 -14 -18
-21 -18 -21 -23 11 -6 40 -27 49 -39 17 -9 -22 -10 -22 -16 10 -4 17 -12 32
-17 32 -16 0 -21 -30 -10 -56 7 -15 8 -24 2 -24 -6 0 -10 6 -10 13 0 18 -48
60 -60 52 -6 -4 -9 -13 -6 -21 3 -8 1 -14 -3 -14 -5 0 -11 7 -15 15 -3 8 -12
12 -21 9 -8 -3 -12 -11 -9 -16 18 -28 -18 2 -38 32 -15 22 -38 40 -64 49 -37
13 -44 12 -80 -5 -38 -19 -39 -20 -38 -71 l2 -53 -103 0 c-80 0 -105 -3 -115
-15 -12 -14 -15 -14 -36 0 -25 16 -54 20 -54 7 0 -4 15 -16 34 -26 41 -22 47
-39 34 -103 -6 -30 -5 -83 1 -143 12 -114 10 -142 -8 -164 -18 -21 -6 -33 15
-15 10 8 40 14 74 14 56 0 57 -1 47 -23 -6 -12 -8 -25 -4 -28 9 -10 27 6 37
32 9 23 12 24 119 23 l110 -1 -9 -24 c-14 -35 15 -32 32 4 l13 27 150 3 c88 2
229 -4 340 -14 176 -15 193 -15 229 0 22 9 36 19 33 22 -3 4 3 29 13 58 10 28
22 76 25 106 6 52 9 57 48 80 30 17 37 25 25 28 -9 2 -26 -1 -36 -7 -25 -13
-32 2 -32 69 0 27 -5 52 -11 56 -7 4 0 17 17 35 15 16 23 29 17 29 -6 0 -23
-14 -37 -31 -20 -23 -27 -27 -32 -16 -3 8 -14 17 -25 20 -13 3 -17 11 -13 21
8 20 -4 20 -27 0 -14 -12 -29 -14 -73 -9 -53 7 -54 8 -45 32 25 65 -5 113 -68
112 -21 0 -47 -4 -58 -9z m-522 -197 c6 -34 1 -43 -24 -43 -14 0 -19 7 -19 28
0 49 34 60 43 15z m545 -31 c-8 -10 -22 -36 -33 -59 l-18 -43 32 -70 c35 -79
38 -95 15 -104 -11 -4 -21 8 -40 49 -13 31 -24 60 -24 65 0 18 -17 11 -33 -14
-9 -12 -17 -38 -19 -57 -2 -25 -8 -35 -23 -37 -19 -3 -20 4 -24 105 -2 59 -4
124 -5 143 -1 29 3 36 22 38 21 3 22 0 23 -55 1 -96 10 -103 44 -32 30 62 69
104 87 93 5 -4 4 -13 -4 -22z m-367 -8 c10 -13 10 -17 -2 -25 -21 -13 -39 -11
-39 6 0 10 -10 15 -31 15 -30 0 -30 -1 -27 -47 l3 -48 43 -6 c23 -3 46 -10 51
-15 15 -16 21 -122 7 -133 -20 -16 -90 -29 -115 -20 -18 7 -22 15 -19 41 2 26
8 34 26 36 20 3 23 0 20 -25 -3 -24 1 -28 25 -31 27 -3 27 -2 27 52 0 59 -9
71 -50 68 -48 -4 -66 28 -61 109 2 36 116 54 142 23z m79 -54 c0 -68 1 -70 25
-70 24 0 25 3 25 60 0 45 4 62 15 67 9 3 18 4 20 2 11 -12 24 -243 14 -261
-19 -35 -34 -14 -37 50 -3 61 -3 62 -32 62 -30 0 -30 0 -30 -60 0 -53 -2 -60
-20 -60 -12 0 -20 7 -21 18 -5 71 -7 247 -3 254 3 4 14 8 25 8 17 0 19 -7 19
-70z m459 60 c12 -6 21 -27 25 -62 4 -29 13 -56 19 -61 9 -7 9 -10 0 -14 -8
-3 -13 -25 -13 -58 0 -44 -4 -56 -20 -65 -11 -6 -20 -7 -21 -3 -1 4 -2 15 -3
23 -2 8 -3 32 -4 53 -2 36 -3 37 -42 37 l-40 0 0 -55 c0 -41 -4 -57 -15 -62
-9 -3 -18 -4 -20 -2 -2 2 -5 52 -7 111 -4 123 5 141 76 157 22 5 42 9 44 10 2
1 11 -3 21 -9z m-909 -72 l33 -73 22 70 c16 54 26 71 42 73 20 3 21 -2 22
-119 1 -67 2 -125 3 -128 2 -21 -5 -31 -22 -31 -18 0 -20 7 -21 68 l-1 67 -12
-40 c-9 -28 -19 -41 -34 -43 -14 -2 -22 2 -22 12 0 8 -6 28 -12 43 -13 26 -13
25 -18 -32 -4 -52 -8 -60 -25 -60 -19 0 -20 9 -26 115 -8 172 16 198 71 78z
m205 -67 c7 -111 4 -131 -19 -131 -17 0 -25 42 -27 141 -2 79 3 99 25 99 10 0
16 -29 21 -109z"/>
<path d="M1165 853 c-27 -7 -35 -21 -35 -65 0 -38 0 -38 41 -38 l40 0 -3 52
c-3 53 -8 59 -43 51z"/>
<path d="M200 1023 c1 -19 16 -31 29 -24 7 5 10 14 7 20 -8 12 -36 15 -36 4z"/>
<path d="M1243 1013 c-18 -7 -16 -23 2 -23 8 0 15 7 15 15 0 8 -1 15 -2 14 -2
0 -9 -3 -15 -6z"/>
<path d="M305 980 c-3 -5 -2 -10 4 -10 5 0 13 5 16 10 3 6 2 10 -4 10 -5 0
-13 -4 -16 -10z"/>
<path d="M36 681 c-16 -3 -31 -12 -34 -20 -3 -10 3 -12 29 -6 37 8 56 20 42
27 -4 2 -21 2 -37 -1z"/>
<path d="M1415 660 c-3 -6 0 -13 9 -16 22 -8 59 -1 64 14 5 15 -64 17 -73 2z"/>
<path d="M600 470 c0 -5 7 -7 15 -4 8 4 15 8 15 10 0 2 -7 4 -15 4 -8 0 -15
-4 -15 -10z"/>
<path d="M1194 467 c-8 -22 11 -46 26 -31 7 7 5 17 -4 30 -14 18 -15 18 -22 1z"/>
<path d="M1150 439 c0 -20 21 -49 35 -49 18 0 19 19 1 43 -15 19 -36 23 -36 6z"/>
</g>
</svg>
